<svg width="47" height="58" viewBox="0 0 47 58" fill="none" xmlns="http://www.w3.org/2000/svg">
<path d="M45.2 15.5V42.5C45.2 53.3 42.5 56 31.7 56H15.5C4.7 56 2 53.3 2 42.5V15.5C2 4.7 4.7 2 15.5 2H31.7C42.5 2 45.2 4.7 45.2 15.5Z" stroke="#A65638" stroke-width="3" stroke-linecap="round" stroke-linejoin="round"/>
<path d="M29 11.45H18.2" stroke="#A65638" stroke-width="3" stroke-linecap="round" stroke-linejoin="round"/>
<path d="M23.6 48.17C25.9113 48.17 27.785 46.2964 27.785 43.985C27.785 41.6737 25.9113 39.8 23.6 39.8C21.2887 39.8 19.415 41.6737 19.415 43.985C19.415 46.2964 21.2887 48.17 23.6 48.17Z" stroke="#A65638" stroke-width="3" stroke-linecap="round" stroke-linejoin="round"/>
</svg>
