<svg width="54" height="54" viewBox="0 0 54 54" fill="none" xmlns="http://www.w3.org/2000/svg">
<path d="M19.125 42.6824H18C9 42.6824 4.5 40.4324 4.5 29.1824V17.9324C4.5 8.93237 9 4.43237 18 4.43237H36C45 4.43237 49.5 8.93237 49.5 17.9324V29.1824C49.5 38.1824 45 42.6824 36 42.6824H34.875C34.1775 42.6824 33.5025 43.0199 33.075 43.5824L29.7 48.0824C28.215 50.0624 25.785 50.0624 24.3 48.0824L20.925 43.5824C20.565 43.0874 19.755 42.6824 19.125 42.6824Z" stroke="black" stroke-width="3" stroke-miterlimit="10" stroke-linecap="round" stroke-linejoin="round"/>
<path d="M18 19.5751L13.5 24.0751L18 28.5751" stroke="#A65638" stroke-width="3" stroke-miterlimit="10" stroke-linecap="round" stroke-linejoin="round"/>
<path d="M36 19.5751L40.5 24.0751L36 28.5751" stroke="#A65638" stroke-width="3" stroke-miterlimit="10" stroke-linecap="round" stroke-linejoin="round"/>
<path d="M29.25 18.8325L24.75 29.3176" stroke="#A65638" stroke-width="3" stroke-miterlimit="10" stroke-linecap="round" stroke-linejoin="round"/>
</svg>
